<svg width="28" height="25" viewBox="0 0 28 25" fill="none" xmlns="http://www.w3.org/2000/svg">
<path fill-rule="evenodd" clip-rule="evenodd" d="M11.403 18.9918C16.6859 18.9918 19.5755 14.3776 19.5755 10.3766C19.5755 10.2453 19.5755 10.1149 19.5671 9.98503C20.1292 9.55704 20.6143 9.02564 21 8.4176C20.4764 8.66259 19.9199 8.82325 19.3508 8.89409C19.95 8.51554 20.3987 7.92082 20.6136 7.21906C20.0494 7.57178 19.4327 7.82072 18.7894 7.95429C17.7016 6.73525 15.8823 6.67619 14.7252 7.8229C13.9797 8.56229 13.6626 9.66471 13.8943 10.7162C11.585 10.5937 9.4332 9.44409 7.9744 7.55282C7.2121 8.9364 7.602 10.7057 8.8641 11.5942C8.407 11.5802 7.9597 11.4504 7.56 11.2158V11.2542C7.5607 12.6954 8.5246 13.9363 9.8644 14.2218C9.4416 14.3436 8.9978 14.3612 8.568 14.2734C8.9439 15.5072 10.0226 16.3523 11.2511 16.3766C10.234 17.2193 8.9775 17.6769 7.6839 17.6754C7.4557 17.6747 7.2275 17.6607 7 17.6319C8.3139 18.5203 9.842 18.9918 11.403 18.9896" fill="#FF1054"/>
<path d="M20.0667 24H7.93333C4.12 24 1 21.24 1 17.8667V7.13333C1 3.76 4.12 1 7.93333 1H20.0667C23.88 1 27 3.76 27 7.13333V17.8667C27 21.24 23.88 24 20.0667 24Z" stroke="#FF1054" stroke-width="2" stroke-miterlimit="10" stroke-linecap="round" stroke-linejoin="round"/>
</svg>
