<svg width="28" height="28" viewBox="0 0 28 28" fill="none" xmlns="http://www.w3.org/2000/svg">
<path fill-rule="evenodd" clip-rule="evenodd" d="M23.3334 1.1665C25.2665 1.1665 26.8334 2.73351 26.8334 4.6665V23.3332C26.8334 25.2662 25.2665 26.8332 23.3334 26.8332H4.66675C2.73376 26.8332 1.16675 25.2662 1.16675 23.3332V4.6665C1.16675 2.73351 2.73376 1.1665 4.66675 1.1665H23.3334ZM23.3334 3.49984C23.9778 3.49984 24.5001 4.02218 24.5001 4.6665V23.3332C24.5001 23.9775 23.9778 24.4998 23.3334 24.4998H17.5001V16.3331H19.9223C20.4244 16.3331 20.8702 16.0118 21.0291 15.5353L21.546 13.9848C21.7348 13.4181 21.3131 12.8331 20.7159 12.8331H17.5001V10.4997C17.5001 9.91641 18.0834 9.33308 18.6667 9.33308H21.0001C21.6444 9.33308 22.1667 8.81074 22.1667 8.16641V7.36609C22.1667 6.98923 21.9261 6.65135 21.5616 6.55519C20.0323 6.15161 18.6667 6.15161 18.6667 6.15161C15.7501 6.15161 14.0001 8.16641 14.0001 9.91641V12.8331H11.6667C11.0224 12.8331 10.5001 13.3554 10.5001 13.9997V15.1664C10.5001 15.8107 11.0224 16.3331 11.6667 16.3331H14.0001V24.4998H4.66675C4.02242 24.4998 3.50008 23.9775 3.50008 23.3332V4.6665C3.50008 4.02218 4.02242 3.49984 4.66675 3.49984H23.3334Z" fill="#FF1054"/>
</svg>
