<svg width="28" height="28" viewBox="0 0 28 28" fill="none" xmlns="http://www.w3.org/2000/svg">
<path fill-rule="evenodd" clip-rule="evenodd" d="M12.5 21C15.5376 21 18 18.7614 18 16C18 13.2386 15.5376 11 12.5 11C9.46243 11 7 13.2386 7 16C7 18.7614 9.46243 21 12.5 21Z" fill="#FF1054"/>
<path d="M20.9999 5.8335C20.3556 5.8335 19.8333 6.35584 19.8333 7.00016C19.8333 7.64449 20.3556 8.16683 20.9999 8.16683C21.6443 8.16683 22.1666 7.64449 22.1666 7.00016C22.1666 6.35584 21.6443 5.8335 20.9999 5.8335Z" fill="#FF1054"/>
<path fill-rule="evenodd" clip-rule="evenodd" d="M1.9297 4.98857C1.16675 6.48596 1.16675 8.44614 1.16675 12.3665V15.6332C1.16675 19.5535 1.16675 21.5138 1.9297 23.0111C2.60081 24.3282 3.67167 25.3991 4.98882 26.0702C6.4862 26.8332 8.44639 26.8332 12.3667 26.8332H15.6334C19.5538 26.8332 21.514 26.8332 23.0113 26.0702C24.3285 25.3991 25.3993 24.3282 26.0704 23.0111C26.8334 21.5138 26.8334 19.5535 26.8334 15.6332V12.3665C26.8334 8.44614 26.8334 6.48596 26.0704 4.98857C25.3993 3.67143 24.3285 2.60057 23.0113 1.92946C21.514 1.1665 19.5538 1.1665 15.6334 1.1665H12.3667C8.44639 1.1665 6.4862 1.1665 4.98882 1.92946C3.67167 2.60057 2.60081 3.67143 1.9297 4.98857ZM15.6334 3.49984H12.3667C10.3681 3.49984 9.00937 3.50166 7.95917 3.58745C6.93619 3.67103 6.41306 3.82253 6.04813 4.00847C5.17004 4.45589 4.45613 5.16979 4.00871 6.04788C3.82277 6.41282 3.67128 6.93595 3.5877 7.95893C3.5019 9.00913 3.50008 10.3678 3.50008 12.3665V15.6332C3.50008 17.6319 3.5019 18.9905 3.5877 20.0407C3.67128 21.0638 3.82277 21.5869 4.00871 21.9518C4.45613 22.8299 5.17004 23.5438 6.04813 23.9912C6.41306 24.1771 6.93619 24.3287 7.95917 24.4122C9.00937 24.498 10.3681 24.4998 12.3667 24.4998H15.6334C17.6321 24.4998 18.9907 24.498 20.041 24.4122C21.064 24.3287 21.5871 24.1771 21.9521 23.9912C22.8301 23.5438 23.544 22.8299 23.9914 21.9518C24.1774 21.5869 24.3289 21.0638 24.4125 20.0407C24.4982 18.9905 24.5001 17.6319 24.5001 15.6332V12.3665C24.5001 10.3678 24.4982 9.00913 24.4125 7.95893C24.3289 6.93595 24.1774 6.41282 23.9914 6.04788C23.544 5.16979 22.8301 4.45589 21.9521 4.00847C21.5871 3.82253 21.064 3.67103 20.041 3.58745C18.9907 3.50166 17.6321 3.49984 15.6334 3.49984Z" fill="#FF1054"/>
</svg>
