<svg xmlns="http://www.w3.org/2000/svg" viewBox="0 0 40 40"><defs><style>.cls-1{fill:none;}.cls-2{fill:#ff1054;}</style></defs><title>icon_world</title><g id="Слой_2" data-name="Слой 2"><g id="Design"><path class="cls-1" d="M0,0H40V40H0Z"/><path class="cls-2" d="M20,3.33A16.67,16.67,0,1,0,36.67,20,16.68,16.68,0,0,0,20,3.33ZM18.33,33.22A13.27,13.27,0,0,1,7,17l8,8v1.67A3.34,3.34,0,0,0,18.33,30ZM29.83,29a3.29,3.29,0,0,0-3.16-2.31H25v-5A1.67,1.67,0,0,0,23.33,20h-10V16.67h3.34A1.67,1.67,0,0,0,18.33,15V11.67h3.34A3.34,3.34,0,0,0,25,8.33V7.65A13.3,13.3,0,0,1,29.83,29Z"/></g></g></svg>