<svg xmlns="http://www.w3.org/2000/svg" viewBox="0 0 40 40"><defs><style>.cls-1{fill:none;}.cls-2{fill:#ff1054;}</style></defs><title>icon_mission</title><g id="Слой_2" data-name="Слой 2"><g id="Design"><path class="cls-1" d="M0,0H40V40H0Z"/><path class="cls-2" d="M20,13.33A6.67,6.67,0,1,0,26.67,20,6.67,6.67,0,0,0,20,13.33Zm14.9,5A15,15,0,0,0,21.67,5.1V1.67H18.33V5.1A15,15,0,0,0,5.1,18.33H1.67v3.34H5.1A15,15,0,0,0,18.33,34.9v3.43h3.34V34.9A15,15,0,0,0,34.9,21.67h3.43V18.33ZM20,31.67A11.67,11.67,0,1,1,31.67,20,11.66,11.66,0,0,1,20,31.67Z"/></g></g></svg>