<svg width="121" height="19" viewBox="0 0 121 19" fill="none" xmlns="http://www.w3.org/2000/svg">
<path d="M83.53 14.214C84.1826 14.2385 84.833 14.1239 85.438 13.878C85.9996 13.592 86.4865 13.1787 86.86 12.671H86.932L87.462 14.035H89.373V7.34801C89.4112 6.84949 89.334 6.34885 89.1472 5.88507C88.9604 5.42128 88.6691 5.00685 88.296 4.67401C87.3956 4.03078 86.3 3.71977 85.196 3.79401C83.8607 3.77742 82.5418 4.08887 81.355 4.70101L82.261 6.55001C83.1429 6.11474 84.1055 5.86719 85.088 5.82301C85.2973 5.79047 85.5113 5.80712 85.7131 5.87166C85.9148 5.9362 86.0988 6.04685 86.2504 6.19483C86.402 6.34282 86.517 6.52408 86.5863 6.72424C86.6557 6.9244 86.6775 7.13797 86.65 7.34801V7.78801L84.909 7.84201C83.7302 7.80974 82.565 8.09983 81.539 8.68101C81.165 8.94373 80.8655 9.29883 80.6696 9.71172C80.4736 10.1246 80.388 10.5812 80.421 11.037C80.3932 11.4649 80.4526 11.8939 80.5954 12.2982C80.7382 12.7025 80.9616 13.0735 81.252 13.389C81.5562 13.6733 81.9149 13.893 82.3065 14.0348C82.698 14.1766 83.1142 14.2376 83.53 14.214ZM83.818 9.85201C84.3599 9.54912 84.9745 9.40041 85.595 9.42201L86.654 9.38601V10.211C86.6661 10.4798 86.6217 10.7481 86.5235 10.9986C86.4253 11.2491 86.2755 11.4761 86.084 11.665C85.8791 11.8524 85.6391 11.9974 85.3778 12.0914C85.1166 12.1855 84.8393 12.2268 84.562 12.213C83.6773 12.213 83.2346 11.827 83.234 11.055C83.2189 10.8211 83.2649 10.5873 83.3672 10.3764C83.4696 10.1656 83.6249 9.9849 83.818 9.85201Z" fill="#FF1054"/>
<path d="M93.9621 9.314C93.8934 8.43503 94.0703 7.55426 94.4731 6.77C94.6593 6.50889 94.9103 6.30076 95.2014 6.16609C95.4924 6.03143 95.8136 5.97488 96.1331 6.002C96.3672 5.98202 96.6026 6.02129 96.8176 6.11618C97.0325 6.21108 97.2201 6.35855 97.3631 6.545C97.6535 7.03647 97.7877 7.60454 97.7481 8.174V14.035H100.486V7.492C100.554 6.49729 100.228 5.51574 99.5791 4.759C99.2259 4.42592 98.8073 4.16978 98.35 4.00677C97.8926 3.84376 97.4064 3.77744 96.9221 3.812C96.2935 3.80083 95.67 3.92817 95.0961 4.185C94.5765 4.41929 94.1378 4.802 93.8351 5.285H93.6831L93.3151 4H91.2241V14.035H93.9621V9.314Z" fill="#FF1054"/>
<path d="M102.064 17.719C103.041 18.2661 104.155 18.5202 105.272 18.451C106.741 18.5399 108.205 18.2031 109.487 17.481C109.95 17.1956 110.33 16.7931 110.587 16.3141C110.845 15.8351 110.971 15.2966 110.954 14.753C110.98 14.3627 110.916 13.9716 110.766 13.6103C110.615 13.2491 110.383 12.9276 110.088 12.671C109.356 12.1508 108.466 11.9 107.57 11.961H105.87C104.864 11.961 104.361 11.7637 104.362 11.369C104.37 11.2244 104.412 11.0838 104.485 10.9589C104.559 10.834 104.661 10.7284 104.783 10.651L105.183 10.696L105.676 10.723C106.791 10.7898 107.895 10.4721 108.804 9.82301C109.177 9.52164 109.473 9.13651 109.669 8.69896C109.865 8.26141 109.955 7.78381 109.931 7.30501C109.937 6.77208 109.787 6.24899 109.5 5.80001L111.071 5.40001V4.00001H107.571C107.463 3.97601 107.216 3.93835 106.831 3.88701C106.5 3.84075 106.166 3.81537 105.831 3.81101C104.739 3.73999 103.658 4.05893 102.779 4.71101C102.419 5.02504 102.136 5.41713 101.951 5.85735C101.766 6.29756 101.684 6.77425 101.711 7.25101C101.696 7.87476 101.856 8.49031 102.172 9.02801C102.464 9.51583 102.903 9.89903 103.425 10.123C103.067 10.3198 102.742 10.5727 102.464 10.872C102.253 11.1278 102.136 11.4482 102.133 11.7798C102.13 12.1114 102.24 12.4341 102.446 12.694C102.636 12.9505 102.89 13.1531 103.182 13.282C102.555 13.4003 101.977 13.7037 101.523 14.153C101.143 14.5648 100.94 15.1091 100.957 15.669C100.945 16.0779 101.041 16.4829 101.235 16.8429C101.429 17.2029 101.715 17.5051 102.064 17.719ZM105.83 5.47301C106.822 5.47301 107.318 6.07701 107.319 7.28501C107.344 7.74368 107.218 8.19788 106.96 8.57801C106.824 8.7424 106.65 8.87145 106.453 8.95416C106.257 9.03687 106.043 9.07078 105.83 9.05301C105.617 9.06943 105.402 9.03492 105.205 8.95234C105.007 8.86976 104.832 8.74147 104.694 8.57801C104.427 8.20152 104.296 7.74569 104.322 7.28501C104.322 6.07701 104.825 5.47301 105.83 5.47301ZM103.83 14.515C104.203 14.2683 104.644 14.1442 105.091 14.16H106.51C107.028 14.1333 107.545 14.2067 108.035 14.376C108.19 14.4368 108.321 14.5453 108.41 14.6857C108.499 14.8262 108.54 14.9912 108.529 15.157C108.516 15.4028 108.429 15.6389 108.28 15.8349C108.131 16.0309 107.927 16.1779 107.694 16.257C106.964 16.5575 106.176 16.694 105.387 16.657C104.861 16.6852 104.336 16.5741 103.866 16.335C103.702 16.2518 103.564 16.1246 103.468 15.9676C103.372 15.8106 103.322 15.63 103.323 15.446C103.322 15.2604 103.368 15.0775 103.457 14.9147C103.546 14.7518 103.675 14.6143 103.832 14.515H103.83Z" fill="#FF1054"/>
<path d="M72.7141 9.314C72.6484 8.43939 72.8252 7.56361 73.2251 6.783C73.4088 6.51839 73.6589 6.30676 73.9503 6.16933C74.2416 6.0319 74.564 5.9735 74.8851 6C75.9617 6 76.5001 6.72467 76.5001 8.174V14.035H79.2381V7.492C79.3045 6.49745 78.9752 5.51694 78.3221 4.764C77.9644 4.42898 77.5414 4.17149 77.0795 4.00767C76.6176 3.84385 76.1269 3.77723 75.6381 3.812C75.0655 3.7714 74.4927 3.88686 73.9806 4.14608C73.4685 4.4053 73.0363 4.79857 72.7301 5.284H72.5871L72.6501 4.476C72.6911 3.657 72.7131 3.136 72.7131 2.915V0.0690002H69.9761V14.035H72.7141V9.314Z" fill="#FF1054"/>
<path d="M64.5999 14.214C65.1741 14.2251 65.7478 14.1711 66.3099 14.053C66.7861 13.9343 67.2393 13.7373 67.6509 13.47V11.127C67.236 11.4098 66.7827 11.6317 66.3049 11.786C65.831 11.9316 65.3376 12.0038 64.8419 12C63.4179 12 62.7056 11.0183 62.7049 9.05501C62.7049 7.03368 63.4172 6.02268 64.8419 6.02201C65.219 6.02275 65.594 6.07867 65.9549 6.18801C66.3256 6.29868 66.7256 6.44101 67.1549 6.61501L67.9639 4.49601C66.9894 4.02994 65.92 3.79647 64.8399 3.81401C64.1703 3.77004 63.4989 3.86762 62.8695 4.1004C62.2401 4.33317 61.6668 4.69592 61.1869 5.16501C60.2719 6.25376 59.8151 7.65517 59.9129 9.07401C59.9142 12.5007 61.4766 14.214 64.5999 14.214Z" fill="#FF1054"/>
<path d="M116.3 14.214C116.968 14.2248 117.636 14.1662 118.292 14.039C118.824 13.9269 119.339 13.7474 119.826 13.505V11.387C119.286 11.6458 118.721 11.8469 118.139 11.987C117.577 12.1157 117.001 12.1791 116.425 12.176C116.094 12.1961 115.762 12.1484 115.451 12.0358C115.139 11.9231 114.853 11.748 114.612 11.521C114.157 11.0244 113.91 10.3723 113.922 9.69899H120.392V8.37199C120.427 7.76325 120.34 7.15364 120.137 6.57879C119.933 6.00393 119.618 5.47537 119.208 5.02399C118.768 4.60551 118.248 4.28194 117.678 4.07342C117.108 3.86491 116.501 3.77592 115.896 3.81199C115.249 3.77668 114.603 3.88155 114.001 4.1194C113.4 4.35725 112.856 4.72246 112.409 5.18999C111.508 6.28236 111.057 7.67694 111.148 9.08999C111.104 9.78095 111.202 10.4736 111.437 11.125C111.672 11.7763 112.037 12.3727 112.512 12.877C113.022 13.3409 113.62 13.6982 114.271 13.9278C114.921 14.1574 115.611 14.2547 116.3 14.214ZM114.549 6.31399C114.722 6.12781 114.934 5.98189 115.169 5.88651C115.405 5.79114 115.659 5.74863 115.913 5.76199C116.169 5.75 116.425 5.79306 116.664 5.88827C116.903 5.98348 117.118 6.12863 117.296 6.31399C117.661 6.75178 117.85 7.31029 117.825 7.87999H113.98C113.988 7.30887 114.186 6.75684 114.545 6.31199L114.549 6.31399Z" fill="#FF1054"/>
<path d="M45.364 4.00101H42.626V14.035H45.364V4.00101Z" fill="#FF1054"/>
<path d="M52.3098 14.214C52.8838 14.2251 53.4571 14.1711 54.0188 14.053C54.4954 13.9345 54.949 13.7375 55.3608 13.47V11.127C54.9459 11.4098 54.4926 11.6317 54.0148 11.786C53.541 11.9316 53.0476 12.0038 52.5518 12C51.1265 12 50.4142 11.0183 50.4148 9.05501C50.4148 7.03368 51.1272 6.02268 52.5518 6.02201C52.9289 6.02282 53.3039 6.07875 53.6648 6.18801C54.0348 6.29868 54.4348 6.44101 54.8648 6.61501L55.6728 4.49601C54.6987 4.03002 53.6296 3.79656 52.5498 3.81401C51.8809 3.77021 51.2101 3.86769 50.5813 4.1001C49.9524 4.33251 49.3795 4.69467 48.8998 5.16301C47.9841 6.2514 47.5269 7.65298 47.6248 9.07201C47.6242 12.5 49.1858 14.214 52.3098 14.214Z" fill="#FF1054"/>
<path d="M14.0109 0.0690002H11.2729V14.034H14.0109V0.0690002Z" fill="#FF1054"/>
<path d="M19.3238 14.214C19.9761 14.2386 20.6262 14.1241 21.2308 13.878C21.7924 13.592 22.2793 13.1787 22.6528 12.671H22.7248L23.2548 14.035H25.1668V7.34801C25.2049 6.84941 25.1275 6.34873 24.9405 5.88493C24.7536 5.42114 24.4621 5.00675 24.0888 4.67401C23.1899 4.03167 22.0962 3.7207 20.9938 3.79401C19.6582 3.77755 18.339 4.08898 17.1518 4.70101L18.0578 6.55001C18.9401 6.11483 19.903 5.86729 20.8858 5.82301C21.095 5.79064 21.3089 5.80743 21.5106 5.87205C21.7122 5.93666 21.896 6.04734 22.0475 6.1953C22.199 6.34326 22.3139 6.52446 22.3832 6.72453C22.4525 6.92461 22.4743 7.13807 22.4468 7.34801V7.78801L20.7058 7.84201C19.527 7.8099 18.3619 8.09998 17.3358 8.68101C16.9622 8.94399 16.6629 9.29917 16.4672 9.71201C16.2715 10.1248 16.1859 10.5813 16.2188 11.037C16.1909 11.4648 16.2501 11.8938 16.3927 12.2981C16.5354 12.7023 16.7586 13.0735 17.0488 13.389C17.3527 13.6729 17.711 13.8923 18.102 14.0341C18.4929 14.1758 18.9085 14.2371 19.3238 14.214ZM19.6108 9.85201C20.1527 9.54912 20.7673 9.40041 21.3878 9.42202L22.4468 9.38601V10.211C22.4591 10.4797 22.4148 10.748 22.3168 10.9985C22.2187 11.2489 22.0692 11.476 21.8778 11.665C21.6729 11.8524 21.4329 11.9974 21.1717 12.0914C20.9104 12.1855 20.6331 12.2268 20.3558 12.213C19.4698 12.213 19.0271 11.827 19.0278 11.055C19.0127 10.8212 19.0584 10.5875 19.1606 10.3766C19.2628 10.1658 19.4179 9.98502 19.6108 9.85201Z" fill="#FF1054"/>
<path d="M3.34589 14.385C3.34589 14.2517 3.29822 13.767 3.20289 12.931H3.34589C3.67187 13.351 4.09379 13.6867 4.57629 13.9099C5.05878 14.1331 5.58777 14.2374 6.11889 14.214C6.84969 14.2307 7.56677 14.0138 8.16589 13.595C8.77895 13.1387 9.2451 12.513 9.50689 11.795C9.84014 10.9017 10.0003 9.95319 9.97889 9.00001C10.0569 7.65382 9.70454 6.31772 8.97289 5.18501C8.66006 4.74272 8.24178 4.38551 7.75598 4.14575C7.27019 3.906 6.73223 3.79129 6.19089 3.81201C5.6269 3.78419 5.06573 3.90766 4.56551 4.16964C4.06529 4.43162 3.64421 4.82258 3.34589 5.30201H3.21989L2.83389 4.00001H0.608887V18.45H3.34589V14.385ZM3.34589 8.68501C3.29627 7.96529 3.46495 7.24734 3.82989 6.62501C4.00774 6.40877 4.23543 6.23892 4.49339 6.13006C4.75135 6.02119 5.03188 5.97657 5.31089 6.00001C5.59304 5.98164 5.87484 6.04089 6.1257 6.17135C6.37656 6.3018 6.5869 6.49847 6.73389 6.74001C7.07962 7.4273 7.23631 8.19419 7.18789 8.96201C7.18789 10.9873 6.57422 12 5.34689 12C5.05467 12.023 4.76143 11.9708 4.49516 11.8482C4.22888 11.7257 3.99846 11.5369 3.82589 11.3C3.44897 10.5893 3.28246 9.78595 3.34589 8.98401V8.68501Z" fill="#FF1054"/>
<path d="M43.9998 2.753C44.4038 2.78398 44.804 2.65668 45.1158 2.398C45.2438 2.26815 45.3431 2.11281 45.4072 1.94208C45.4713 1.77134 45.4988 1.58904 45.4878 1.407C45.4878 0.515667 44.9918 0.0696677 43.9998 0.069001C43.0078 0.0683343 42.5108 0.514334 42.5088 1.407C42.5088 2.30367 43.0058 2.75233 43.9998 2.753Z" fill="#FF1054"/>
<path d="M35.4829 10.894C35.4145 11.7882 35.6815 12.6759 36.2319 13.384C36.5486 13.6843 36.9256 13.9136 37.3379 14.0567C37.7502 14.1998 38.1882 14.2534 38.6229 14.214C39.4834 14.2396 40.3397 14.0835 41.1359 13.756V11.719C40.5804 11.909 39.9997 12.0152 39.4129 12.034C39.1002 12.0494 38.7926 11.9502 38.5479 11.755C38.4322 11.6452 38.3427 11.5108 38.2859 11.3618C38.2292 11.2128 38.2066 11.0529 38.2199 10.894V6.05601H41.0289V4.00001H38.2199V1.86401H36.4689L35.6799 3.98301L34.1719 4.89801V6.05601H35.4829V10.894Z" fill="#FF1054"/>
<path d="M27.4429 8.874C27.9717 9.24073 28.5424 9.54288 29.1429 9.774C29.6809 10.002 30.1116 10.202 30.4349 10.374C30.6833 10.4931 30.913 10.6477 31.1169 10.833C31.1839 10.9023 31.2362 10.9844 31.2706 11.0745C31.305 11.1646 31.3207 11.2607 31.3169 11.357C31.3169 11.9317 30.8206 12.219 29.8279 12.219C29.2588 12.2072 28.6933 12.1259 28.1439 11.977C27.5534 11.8322 26.9781 11.6313 26.4259 11.377V13.639C26.8901 13.8358 27.3743 13.9816 27.8699 14.074C28.4863 14.1812 29.1113 14.2308 29.7369 14.222C30.8656 14.302 31.9903 14.0193 32.9469 13.415C33.3035 13.1398 33.5876 12.7818 33.7744 12.3719C33.9612 11.962 34.0452 11.5127 34.0189 11.063C34.0303 10.6208 33.941 10.1817 33.7579 9.779C33.5692 9.40179 33.2924 9.07559 32.9509 8.828C32.4149 8.463 31.8362 8.16479 31.2279 7.94C30.635 7.72523 30.0627 7.45748 29.5179 7.14C29.4039 7.07584 29.3082 6.98367 29.2398 6.8722C29.1714 6.76074 29.1325 6.63367 29.1269 6.503C29.1269 6.06634 29.5309 5.848 30.3389 5.848C30.7925 5.84807 31.2434 5.91754 31.6759 6.05401C32.1541 6.20706 32.6244 6.38395 33.0849 6.584L33.9099 4.6C32.806 4.08233 31.6022 3.81268 30.3829 3.81C29.3511 3.74748 28.3249 4.00297 27.4429 4.542C27.1088 4.77061 26.8384 5.08049 26.6572 5.44245C26.476 5.80442 26.3898 6.20656 26.4069 6.611C26.3934 7.0616 26.4773 7.50981 26.6529 7.925C26.8338 8.30173 27.1052 8.62777 27.4429 8.874Z" fill="#FF1054"/>
</svg>
