<svg width="28" height="27" viewBox="0 0 28 27" fill="none" xmlns="http://www.w3.org/2000/svg">
<g clip-path="url(#clip0_134_28)">
<path d="M20.125 26.1562H7.875C4.025 26.1562 0.875 23.1188 0.875 19.4062V7.59375C0.875 3.88125 4.025 0.84375 7.875 0.84375H20.125C23.975 0.84375 27.125 3.88125 27.125 7.59375V19.4062C27.125 23.1188 23.975 26.1562 20.125 26.1562Z" stroke="#1C1E23" stroke-width="2" stroke-miterlimit="10" stroke-linecap="round" stroke-linejoin="round"/>
<path d="M10 12.5356H7V26.0356H10V12.5356Z" fill="#1C1E23"/>
<path d="M18.9091 12.5356C18.0909 12.5356 17.2727 12.8731 16.6364 13.4356V12.5356H13V26.0356H14.8182H16.6364V18.7231C16.6364 17.8231 17.2727 17.0356 18 17.0356C18.7273 17.0356 19.3636 17.8231 19.3636 18.7231V26.0356H23V17.5981C23 14.7856 21.1818 12.5356 18.9091 12.5356Z" fill="#1C1E23"/>
<path d="M7.75 11.0894C8.7165 11.0894 9.5 10.3338 9.5 9.40186C9.5 8.46987 8.7165 7.71436 7.75 7.71436C6.7835 7.71436 6 8.46987 6 9.40186C6 10.3338 6.7835 11.0894 7.75 11.0894Z" fill="#1C1E23"/>
</g>
<defs>
<clipPath id="clip0_134_28">
<rect width="28" height="27" fill="white"/>
</clipPath>
</defs>
</svg>
