<svg width="28" height="31" viewBox="0 0 28 31" fill="none" xmlns="http://www.w3.org/2000/svg">
<g clip-path="url(#clip0_134_35)">
<path d="M26.8819 23.8109C26.37 25.0848 25.0496 26.2386 23.8097 26.4934C23.6829 26.5195 20.6527 27.125 14.0089 27.125H13.9914C7.34835 27.125 4.3156 26.5195 4.1896 26.4943C2.94973 26.2386 1.62848 25.0848 1.11573 23.8099C1.07023 23.6966 0.000976562 20.9705 0.000976562 15.5C0.000976562 10.0295 1.07023 7.30244 1.11573 7.18909C1.62848 5.91422 2.94973 4.76141 4.1896 4.50662C4.3156 4.48047 7.34835 3.875 13.9914 3.875C20.6527 3.875 23.6829 4.48047 23.8089 4.50566C25.0496 4.76141 26.37 5.91422 26.8827 7.18813C26.9282 7.30244 28.0001 10.0295 28.0001 15.5C28.0001 20.9705 26.9282 23.6966 26.8819 23.8109ZM25.2815 7.97281C25.0085 7.29372 24.1527 6.54778 23.4895 6.41119C23.4615 6.40538 20.4629 5.8125 14.0089 5.8125C7.53823 5.8125 4.53698 6.40538 4.5081 6.41119C3.84485 6.54778 2.98998 7.29372 2.7161 7.97669C2.70735 7.99703 1.75185 10.4906 1.75185 15.5C1.75185 20.5084 2.70735 23.002 2.71785 23.0272C2.98998 23.7063 3.84485 24.4522 4.50898 24.5888C4.53698 24.5946 7.53823 25.1875 13.9914 25.1875H14.0089C20.4629 25.1875 23.4615 24.5946 23.4904 24.5888C24.1536 24.4522 25.0085 23.7063 25.2824 23.0233C25.2911 23.002 26.2484 20.5084 26.2484 15.5C26.2484 10.4916 25.2911 7.99703 25.2815 7.97281ZM11.8485 21.1633C11.7067 21.2631 11.544 21.3125 11.3821 21.3125C11.2369 21.3125 11.0916 21.2728 10.9595 21.1914C10.6804 21.0209 10.5071 20.6964 10.5071 20.3438V10.6562C10.5071 10.3046 10.6786 9.98103 10.956 9.81053C11.2334 9.63906 11.5737 9.64681 11.8424 9.83184L18.859 14.633C19.1154 14.8083 19.2729 15.1183 19.2737 15.4525C19.2746 15.7868 19.1206 16.0987 18.8651 16.276L11.8485 21.1633Z" fill="#1C1E23"/>
</g>
<defs>
<clipPath id="clip0_134_35">
<rect width="28" height="31" fill="white"/>
</clipPath>
</defs>
</svg>
